<svg width="128" height="128" viewBox="0 0 128 128" xmlns="http://www.w3.org/2000/svg">
  <defs>
    <linearGradient id="g" x1="0" x2="0" y1="0" y2="1">
      <stop offset="0" stop-color="#FFA54D"/>
      <stop offset="1" stop-color="#FF7A1A"/>
    </linearGradient>
  </defs>
  <g fill="none" fill-rule="evenodd">
    <path d="M64 8c10 0 18 52 26 70 8 18 22 24 22 30 0 6-10 10-48 10S16 114 16 108c0-6 14-12 22-30S54 8 64 8z" fill="url(#g)"/>
    <path d="M40 52h48a4 4 0 0 1 0 8H40a4 4 0 1 1 0-8zm6-16h36a4 4 0 0 1 0 8H46a4 4 0 1 1 0-8z" fill="#FFF" opacity=".9"/>
    <circle cx="48" cy="72" r="9" fill="#111827"/>
    <circle cx="80" cy="72" r="9" fill="#111827"/>
    <circle cx="48" cy="70" r="3.5" fill="#fff"/>
    <circle cx="80" cy="70" r="3.5" fill="#fff"/>
  </g>
</svg>
